<svg width="360" height="250" viewBox="0 0 360 250" xmlns="http://www.w3.org/2000/svg">
  <rect x="1" y="1" width="358" height="248" rx="14" fill="#0D0D0D" stroke="#3a1414" stroke-width="1.5"/>

  <circle cx="24" cy="24" r="5" fill="#ff5f56"/>
  <circle cx="42" cy="24" r="5" fill="#ffb454"/>
  <circle cx="60" cy="24" r="5" fill="#2ecc71"/>
  <text x="180.0" y="29" font-family="JetBrains Mono, Consolas, monospace" font-size="12" fill="#5c6b5a" text-anchor="middle">top --languages</text>
  <line x1="0" y1="42" x2="360" y2="42" stroke="#3a1414" stroke-width="1"/>

  <text x="28" y="62" font-family="JetBrains Mono, Consolas, monospace" font-size="13" fill="#FF3B3B">$ cat languages.json</text>
  
        <circle cx="28" cy="73" r="5" fill="#e34c26"/>
        <text x="42" y="78" font-family="JetBrains Mono, Consolas, monospace" font-size="12.5" fill="#dcead8">HTML</text>
        <text x="336" y="78" font-family="JetBrains Mono, Consolas, monospace" font-size="11.5" fill="#8ea08b" text-anchor="end">52.0%</text>
        <rect x="42" y="84" width="190" height="6" rx="3" fill="#1f2b1f"/>
        <rect x="42" y="84" width="98.75361072480499" height="6" rx="3" fill="#e34c26"/>
        <circle cx="28" cy="103" r="5" fill="#3178c6"/>
        <text x="42" y="108" font-family="JetBrains Mono, Consolas, monospace" font-size="12.5" fill="#dcead8">TypeScript</text>
        <text x="336" y="108" font-family="JetBrains Mono, Consolas, monospace" font-size="11.5" fill="#8ea08b" text-anchor="end">24.6%</text>
        <rect x="42" y="114" width="190" height="6" rx="3" fill="#1f2b1f"/>
        <rect x="42" y="114" width="46.752381431997" height="6" rx="3" fill="#3178c6"/>
        <circle cx="28" cy="133" r="5" fill="#563d7c"/>
        <text x="42" y="138" font-family="JetBrains Mono, Consolas, monospace" font-size="12.5" fill="#dcead8">CSS</text>
        <text x="336" y="138" font-family="JetBrains Mono, Consolas, monospace" font-size="11.5" fill="#8ea08b" text-anchor="end">13.2%</text>
        <rect x="42" y="144" width="190" height="6" rx="3" fill="#1f2b1f"/>
        <rect x="42" y="144" width="24.98514389311351" height="6" rx="3" fill="#563d7c"/>
        <circle cx="28" cy="163" r="5" fill="#4F5D95"/>
        <text x="42" y="168" font-family="JetBrains Mono, Consolas, monospace" font-size="12.5" fill="#dcead8">PHP</text>
        <text x="336" y="168" font-family="JetBrains Mono, Consolas, monospace" font-size="11.5" fill="#8ea08b" text-anchor="end">5.1%</text>
        <rect x="42" y="174" width="190" height="6" rx="3" fill="#1f2b1f"/>
        <rect x="42" y="174" width="9.76584038046096" height="6" rx="3" fill="#4F5D95"/>
        <circle cx="28" cy="193" r="5" fill="#3572A5"/>
        <text x="42" y="198" font-family="JetBrains Mono, Consolas, monospace" font-size="12.5" fill="#dcead8">Python</text>
        <text x="336" y="198" font-family="JetBrains Mono, Consolas, monospace" font-size="11.5" fill="#8ea08b" text-anchor="end">2.1%</text>
        <rect x="42" y="204" width="190" height="6" rx="3" fill="#1f2b1f"/>
        <rect x="42" y="204" width="4.0552587777575475" height="6" rx="3" fill="#3572A5"/>
        <circle cx="28" cy="223" r="5" fill="#FF3B3B"/>
        <text x="42" y="228" font-family="JetBrains Mono, Consolas, monospace" font-size="12.5" fill="#dcead8">Lua</text>
        <text x="336" y="228" font-family="JetBrains Mono, Consolas, monospace" font-size="11.5" fill="#8ea08b" text-anchor="end">2.0%</text>
        <rect x="42" y="234" width="190" height="6" rx="3" fill="#1f2b1f"/>
        <rect x="42" y="234" width="3.814087540626707" height="6" rx="3" fill="#FF3B3B"/>
</svg>